<?xml version="1.0" encoding="UTF-8" standalone="no"?>
<svg width="512" height="512" viewBox="0 0 512 512" xmlns="http://www.w3.org/2000/svg">
  <!-- Background -->
  <defs>
    <linearGradient id="skyGradient" x1="0%" y1="0%" x2="0%" y2="100%">
      <stop offset="0%" stop-color="#87CEEB" />
      <stop offset="100%" stop-color="#1E90FF" />
    </linearGradient>
  </defs>
  <rect width="512" height="512" rx="64" fill="url(#skyGradient)" />
  
  <!-- Orbital paths -->
  <circle cx="256" cy="256" r="180" fill="none" stroke="rgba(255,255,255,0.3)" stroke-width="4" stroke-dasharray="8 4" />
  <ellipse cx="256" cy="256" rx="140" ry="120" fill="none" stroke="rgba(255,255,255,0.4)" stroke-width="3" stroke-dasharray="6 3" transform="rotate(30 256 256)" />
  <ellipse cx="256" cy="256" rx="100" ry="70" fill="none" stroke="rgba(255,255,255,0.5)" stroke-width="2" stroke-dasharray="4 2" transform="rotate(-15 256 256)" />
  
  <!-- Main island -->
  <g transform="translate(256, 150)">
    <!-- Island base -->
    <ellipse cx="0" cy="0" rx="60" ry="28" fill="#8B4513" />
    <ellipse cx="0" cy="-5" rx="60" ry="25" fill="#228B22" />
    
    <!-- Trees and details -->
    <circle cx="-35" cy="-15" r="15" fill="#006400" />
    <circle cx="-30" cy="-25" r="10" fill="#228B22" />
    
    <circle cx="20" cy="-20" r="18" fill="#006400" />
    <circle cx="25" cy="-30" r="12" fill="#228B22" />
    
    <circle cx="0" cy="-12" r="10" fill="#006400" />
    <circle cx="5" cy="-18" r="7" fill="#228B22" />
  </g>
  
  <!-- Smaller island 1 -->
  <g transform="translate(150, 300)">
    <ellipse cx="0" cy="0" rx="30" ry="14" fill="#8B4513" />
    <ellipse cx="0" cy="-3" rx="30" ry="12" fill="#228B22" />
    <circle cx="-15" cy="-8" r="8" fill="#006400" />
    <circle cx="10" cy="-10" r="10" fill="#006400" />
  </g>
  
  <!-- Smaller island 2 -->
  <g transform="translate(350, 220)">
    <ellipse cx="0" cy="0" rx="25" ry="12" fill="#8B4513" />
    <ellipse cx="0" cy="-3" rx="25" ry="10" fill="#228B22" />
    <circle cx="-10" cy="-8" r="7" fill="#006400" />
    <circle cx="8" cy="-7" r="6" fill="#006400" />
  </g>
  
  <!-- Floating particles/clouds -->
  <circle cx="100" cy="150" r="12" fill="rgba(255,255,255,0.7)" />
  <circle cx="115" cy="140" r="8" fill="rgba(255,255,255,0.8)" />
  <circle cx="90" cy="137" r="10" fill="rgba(255,255,255,0.75)" />
  
  <circle cx="380" cy="120" r="15" fill="rgba(255,255,255,0.7)" />
  <circle cx="400" cy="130" r="10" fill="rgba(255,255,255,0.8)" />
  <circle cx="390" cy="105" r="12" fill="rgba(255,255,255,0.75)" />
  
  <circle cx="200" cy="400" r="10" fill="rgba(255,255,255,0.7)" />
  <circle cx="220" cy="410" r="8" fill="rgba(255,255,255,0.8)" />
  <circle cx="210" cy="390" r="12" fill="rgba(255,255,255,0.75)" />
</svg> 